<?xml version="1.0" encoding="utf-8"?>
<!-- Generator: Adobe Illustrator 18.0.0, SVG Export Plug-In . SVG Version: 6.00 Build 0)  -->
<!DOCTYPE svg PUBLIC "-//W3C//DTD SVG 1.1//EN" "http://www.w3.org/Graphics/SVG/1.1/DTD/svg11.dtd">
<svg version="1.1" id="Layer_1" xmlns="http://www.w3.org/2000/svg" xmlns:xlink="http://www.w3.org/1999/xlink" x="0px" y="0px"
	 viewBox="0 0 1400 980" enable-background="new 0 0 1400 980" xml:space="preserve">
<rect fill="#FFFFFF" width="1400" height="980"/>
<g>
	<g>
		<polygon fill="#FFFFFF" points="340.4,299.1 186.9,230 340.1,160.3 493.5,229.4 		"/>
		<path fill="#606161" d="M341.8,302.3l-2.9,0l-153.4-69.1l0-6.4l153.2-69.6l2.9,0L495,226.3l0,6.4L341.8,302.3z M195.4,230
			l144.9,65.3l144.7-65.8l-144.9-65.3L195.4,230z"/>
	</g>
	<g>
		<g>
			<polygon fill="#FFFFFF" points="340.2,201.9 310.1,188.3 340.1,174.6 370.3,188.2 			"/>
			<path fill="#606161" d="M341.6,205.1l-2.9,0l-30.1-13.6l0-6.4l30.1-13.7l2.9,0l30.1,13.6l0,6.4L341.6,205.1z M318.5,188.3
				l21.6,9.8l21.6-9.8l-21.6-9.8L318.5,188.3z"/>
		</g>
		<g>
			<polygon fill="#FFFFFF" points="296.2,222.6 266,209 296.1,195.3 326.3,208.9 			"/>
			<path fill="#606161" d="M297.6,225.7l-2.9,0l-30.1-13.6l0-6.4l30.1-13.7l2.9,0l30.1,13.6l0,6.4L297.6,225.7z M274.5,209l21.6,9.8
				l21.6-9.8l-21.6-9.8L274.5,209z"/>
		</g>
		<g>
			<polygon fill="#FFFFFF" points="252.8,243 222.7,229.5 252.8,215.8 282.9,229.3 			"/>
			<path fill="#606161" d="M254.2,246.2l-2.9,0l-30.1-13.6l0-6.4l30.1-13.7l2.9,0l30.1,13.6l0,6.4L254.2,246.2z M231.1,229.4
				l21.6,9.8l21.6-9.8l-21.6-9.8L231.1,229.4z"/>
		</g>
	</g>
	<g>
		<g>
			<polygon fill="#FFFFFF" points="385,222.3 354.8,208.7 384.9,195.1 415.1,208.6 			"/>
			<path fill="#606161" d="M386.4,225.5l-2.9,0l-30.1-13.6l0-6.4l30.1-13.7l2.9,0l30.1,13.6l0,6.4L386.4,225.5z M363.3,208.7
				l21.6,9.8l21.6-9.8l-21.6-9.8L363.3,208.7z"/>
		</g>
		<g>
			<polygon fill="#FFFFFF" points="341,243 310.8,229.4 340.9,215.7 371,229.3 			"/>
			<path fill="#606161" d="M339.5,246.2l-30.1-13.6l0-6.4l30.1-13.7l2.9,0l30.1,13.6l0,6.4l-30.1,13.7L339.5,246.2z M319.3,229.4
				l21.6,9.8l21.6-9.8l-21.6-9.8L319.3,229.4z"/>
		</g>
		<g>
			<polygon fill="#FFFFFF" points="297.6,263.4 267.4,249.9 297.5,236.2 327.7,249.8 			"/>
			<path fill="#606161" d="M299,266.6l-2.9,0L266,253.1l0-6.4l30.1-13.7l2.9,0l30.1,13.6l0,6.4L299,266.6z M275.9,249.9l21.6,9.8
				l21.6-9.8l-21.6-9.8L275.9,249.9z"/>
		</g>
	</g>
	<g>
		<g>
			<polygon fill="#FFFFFF" points="428.3,242.7 398.2,229.2 428.3,215.5 458.4,229.1 			"/>
			<path fill="#606161" d="M429.8,245.9l-2.9,0l-30.1-13.6l0-6.4l30.1-13.7l2.9,0l30.1,13.6l0,6.4L429.8,245.9z M406.7,229.1
				l21.6,9.8l21.6-9.8l-21.6-9.8L406.7,229.1z"/>
		</g>
		<g>
			<polygon fill="#FFFFFF" points="384.3,263.4 354.2,249.8 384.3,236.1 414.4,249.7 			"/>
			<path fill="#606161" d="M382.9,266.6L352.8,253l0-6.4l30.1-13.7l2.9,0l30.1,13.6l0,6.4l-30.1,13.7L382.9,266.6z M362.7,249.8
				l21.6,9.8l21.6-9.8l-21.6-9.8L362.7,249.8z"/>
		</g>
		<g>
			<polygon fill="#FFFFFF" points="341,283.9 310.8,270.3 340.9,256.6 371,270.2 			"/>
			<path fill="#606161" d="M342.4,287l-2.9,0l-30.1-13.6l0-6.4l30.1-13.7l2.9,0l30.1,13.6l0,6.4L342.4,287z M319.3,270.3l21.6,9.8
				l21.6-9.8l-21.6-9.8L319.3,270.3z"/>
		</g>
	</g>
	<g>
		<polygon fill="#FDBA63" points="340.4,299.1 186.9,230 340.1,160.3 493.5,229.4 		"/>
		<path fill="#606161" d="M341.8,302.3l-2.9,0l-153.4-69.1l0-6.4l153.2-69.6l2.9,0L495,226.3l0,6.4L341.8,302.3z M195.4,230
			l144.9,65.3l144.7-65.8l-144.9-65.3L195.4,230z"/>
	</g>
	<g>
		<g>
			<polygon fill="#FDBA63" points="340.2,201.9 310.1,188.3 340.1,174.6 370.3,188.2 			"/>
			<path fill="#606161" d="M341.6,205.1l-2.9,0l-30.1-13.6l0-6.4l30.1-13.7l2.9,0l30.1,13.6l0,6.4L341.6,205.1z M318.5,188.3
				l21.6,9.8l21.6-9.8l-21.6-9.8L318.5,188.3z"/>
		</g>
		<g>
			<polygon fill="#FDBA63" points="296.2,222.6 266,209 296.1,195.3 326.3,208.9 			"/>
			<path fill="#606161" d="M297.6,225.7l-2.9,0l-30.1-13.6l0-6.4l30.1-13.7l2.9,0l30.1,13.6l0,6.4L297.6,225.7z M274.5,209l21.6,9.8
				l21.6-9.8l-21.6-9.8L274.5,209z"/>
		</g>
		<g>
			<polygon fill="#FDBA63" points="252.8,243 222.7,229.5 252.8,215.8 282.9,229.3 			"/>
			<path fill="#606161" d="M254.2,246.2l-2.9,0l-30.1-13.6l0-6.4l30.1-13.7l2.9,0l30.1,13.6l0,6.4L254.2,246.2z M231.1,229.4
				l21.6,9.8l21.6-9.8l-21.6-9.8L231.1,229.4z"/>
		</g>
	</g>
	<g>
		<g>
			<polygon fill="#FDBA63" points="385,222.3 354.8,208.7 384.9,195.1 415.1,208.6 			"/>
			<path fill="#606161" d="M386.4,225.5l-2.9,0l-30.1-13.6l0-6.4l30.1-13.7l2.9,0l30.1,13.6l0,6.4L386.4,225.5z M363.3,208.7
				l21.6,9.8l21.6-9.8l-21.6-9.8L363.3,208.7z"/>
		</g>
		<g>
			<polygon fill="#FDBA63" points="341,243 310.8,229.4 340.9,215.7 371,229.3 			"/>
			<path fill="#606161" d="M339.5,246.2l-30.1-13.6l0-6.4l30.1-13.7l2.9,0l30.1,13.6l0,6.4l-30.1,13.7L339.5,246.2z M319.3,229.4
				l21.6,9.8l21.6-9.8l-21.6-9.8L319.3,229.4z"/>
		</g>
		<g>
			<polygon fill="#FDBA63" points="297.6,263.4 267.4,249.9 297.5,236.2 327.7,249.8 			"/>
			<path fill="#606161" d="M299,266.6l-2.9,0L266,253.1l0-6.4l30.1-13.7l2.9,0l30.1,13.6l0,6.4L299,266.6z M275.9,249.9l21.6,9.8
				l21.6-9.8l-21.6-9.8L275.9,249.9z"/>
		</g>
	</g>
	<g>
		<g>
			<polygon fill="#FDBA63" points="428.3,242.7 398.2,229.2 428.3,215.5 458.4,229.1 			"/>
			<path fill="#606161" d="M429.8,245.9l-2.9,0l-30.1-13.6l0-6.4l30.1-13.7l2.9,0l30.1,13.6l0,6.4L429.8,245.9z M406.7,229.1
				l21.6,9.8l21.6-9.8l-21.6-9.8L406.7,229.1z"/>
		</g>
		<g>
			<polygon fill="#FDBA63" points="384.3,263.4 354.2,249.8 384.3,236.1 414.4,249.7 			"/>
			<path fill="#606161" d="M382.9,266.6L352.8,253l0-6.4l30.1-13.7l2.9,0l30.1,13.6l0,6.4l-30.1,13.7L382.9,266.6z M362.7,249.8
				l21.6,9.8l21.6-9.8l-21.6-9.8L362.7,249.8z"/>
		</g>
		<g>
			<polygon fill="#FDBA63" points="341,283.9 310.8,270.3 340.9,256.6 371,270.2 			"/>
			<path fill="#606161" d="M342.4,287l-2.9,0l-30.1-13.6l0-6.4l30.1-13.7l2.9,0l30.1,13.6l0,6.4L342.4,287z M319.3,270.3l21.6,9.8
				l21.6-9.8l-21.6-9.8L319.3,270.3z"/>
		</g>
	</g>
	<g>
		<polygon fill="#FFFFFF" points="186.9,230 187,243.1 176.1,250.1 187,260.6 187,272.6 340.4,340.9 340.4,299.1 		"/>
		<path fill="#606161" d="M339,344.1l-153.4-68.3l-2.1-3.2l0-10.6l-9.8-9.4l0.5-5.5l9.3-6l0-11.3l4.9-3.2l153.4,69.1l2.1,3.2
			l0.1,41.8L339,344.1z M190.5,270.4l146.4,65.2l-0.1-34.2l-146.4-66l0,7.7l-1.6,2.9l-7.1,4.6l7.7,7.4l1.1,2.5L190.5,270.4z"/>
	</g>
	<g>
		<polygon fill="#FFFFFF" points="493.5,229.4 493.6,242.6 504.5,249.6 493.6,260.1 493.6,272.1 340.4,340.9 340.4,299.1 		"/>
		<path fill="#606161" d="M341.9,344.1l-4.9-3.2l-0.1-41.8l2-3.2l153.2-69.6l4.9,3.2l0,11.3l9.3,5.9l0.5,5.5l-9.8,9.4l0,10.6
			l-2.1,3.2L341.9,344.1z M343.9,301.3l0.1,34.2l146.2-65.7l0-9.8l1.1-2.5l7.7-7.4l-7.2-4.6l-1.6-2.9l0-7.7L343.9,301.3z"/>
	</g>
	<g>
		<line fill="#FFFFFF" x1="484.1" y1="256.4" x2="355" y2="314.3"/>
		
			<rect x="416.1" y="214.6" transform="matrix(0.4094 0.9124 -0.9124 0.4094 508.141 -214.2682)" fill="#606161" width="7" height="141.5"/>
	</g>
	<g>
		<line fill="#FFFFFF" x1="228.7" y1="271.7" x2="326.4" y2="314.4"/>
		
			<rect x="224.3" y="289.5" transform="matrix(0.9164 0.4003 -0.4003 0.9164 140.487 -86.61)" fill="#606161" width="106.6" height="7"/>
	</g>
	<g>
		<path fill="#FFFFFF" d="M559.6,231.7l252.6-0.4c0,0-22.8-61.5-97.6-83.7L559.6,231.7z"/>
		<path fill="#606161" d="M812.3,234.8l-252.6,0.4l-1.7-6.6L713,144.5l2.7-0.3c75.6,22.5,98.9,83.3,99.9,85.9L812.3,234.8z
			 M573.4,228.2l233.4-0.4c-7-14.5-32.6-58.3-91.8-76.5L573.4,228.2z"/>
	</g>
	<g>
		
			<rect x="670.2" y="121" transform="matrix(-1.703067e-03 -1 1 -1.703067e-03 439.8355 933.6628)" fill="#FFFFFF" width="31.6" height="252.6"/>
		<path fill="#606161" d="M812.3,266.4l-252.6,0.4l-3.5-3.5l-0.1-31.6l3.5-3.5l252.6-0.4l3.5,3.5l0.1,31.6L812.3,266.4z
			 M563.2,259.8l245.6-0.4l0-24.6l-245.6,0.4L563.2,259.8z"/>
	</g>
	<g>
		
			<rect x="670.2" y="172.6" transform="matrix(-1.703067e-03 -1 1 -1.703067e-03 388.3288 985.4333)" fill="#FFFFFF" width="31.6" height="252.6"/>
		<path fill="#606161" d="M812.4,318l-252.6,0.4l-3.5-3.5l-0.1-31.6l3.5-3.5l252.6-0.4l3.5,3.5l0.1,31.6L812.4,318z M563.2,311.4
			l245.6-0.4l0-24.6l-245.6,0.4L563.2,311.4z"/>
	</g>
	<g>
		
			<rect x="676" y="146.8" transform="matrix(-1.703067e-03 -1 1 -1.703067e-03 414.0822 959.5481)" fill="#FFFFFF" width="20" height="252.6"/>
		<path fill="#606161" d="M812.3,286.4l-252.6,0.4l-3.5-3.5l0-20l3.5-3.5l252.6-0.4l3.5,3.5l0,20L812.3,286.4z M563.2,279.8
			l245.6-0.4l0-13l-245.6,0.4L563.2,279.8z"/>
	</g>
	<g>
		
			<rect x="676" y="146.8" transform="matrix(-1.703067e-03 -1 1 -1.703067e-03 414.0822 959.5481)" fill="#FDBA63" width="20" height="252.6"/>
		<path fill="#606161" d="M812.3,286.4l-252.6,0.4l-3.5-3.5l0-20l3.5-3.5l252.6-0.4l3.5,3.5l0,20L812.3,286.4z M563.2,279.8
			l245.6-0.4l0-13l-245.6,0.4L563.2,279.8z"/>
	</g>
	<g>
		
			<ellipse transform="matrix(1 -1.703027e-03 1.703027e-03 1 -0.2932 1.2262)" fill="#FDBA63" cx="719.9" cy="172.8" rx="8.2" ry="5.2"/>
		<path fill="#606161" d="M719.9,181.5c-6.6,0-11.7-3.8-11.7-8.7s5.1-8.7,11.7-8.7s11.7,3.8,11.7,8.7
			C731.6,177.6,726.5,181.4,719.9,181.5z M719.9,171c-3,0-4.6,1.3-4.7,1.7c0.1,0.4,1.7,1.7,4.7,1.7c3,0,4.6-1.3,4.7-1.7
			C724.5,172.4,722.8,171,719.9,171z"/>
	</g>
	<g>
		
			<ellipse transform="matrix(1 -1.703027e-03 1.703027e-03 1 -0.3277 1.1659)" fill="#FDBA63" cx="684.4" cy="193" rx="8.2" ry="5.2"/>
		<path fill="#606161" d="M684.5,201.7c-6.6,0-11.7-3.8-11.7-8.7s5.1-8.7,11.7-8.7c6.6,0,11.7,3.8,11.7,8.7S691,201.7,684.5,201.7z
			 M684.4,191.3c-3,0-4.6,1.3-4.7,1.7c0.1,0.4,1.7,1.7,4.7,1.7c3,0,4.6-1.3,4.7-1.7C689,192.6,687.4,191.3,684.4,191.3z"/>
	</g>
	<g>
		
			<ellipse transform="matrix(1 -1.703027e-03 1.703027e-03 1 -0.361 1.0894)" fill="#FDBA63" cx="639.5" cy="212.5" rx="8.2" ry="5.2"/>
		<path fill="#606161" d="M639.5,221.2c-6.6,0-11.7-3.8-11.7-8.7c0-4.9,5.1-8.7,11.7-8.7c6.6,0,11.7,3.8,11.7,8.7
			C651.2,217.4,646.1,221.2,639.5,221.2z M639.5,210.8c-3,0-4.6,1.3-4.7,1.7c0.1,0.4,1.7,1.7,4.7,1.7c3,0,4.6-1.3,4.7-1.7
			C644.1,212.1,642.5,210.8,639.5,210.8z"/>
	</g>
	<g>
		
			<ellipse transform="matrix(1 -1.703027e-03 1.703027e-03 1 -0.3472 1.2973)" fill="#FDBA63" cx="761.6" cy="204.5" rx="8.2" ry="5.2"/>
		<path fill="#606161" d="M761.6,213.2c-6.6,0-11.7-3.8-11.7-8.7c0-4.9,5.1-8.7,11.7-8.7c6.6,0,11.7,3.8,11.7,8.7
			C773.3,209.4,768.1,213.2,761.6,213.2z M761.6,202.8c-3,0-4.6,1.3-4.7,1.7c0.1,0.4,1.7,1.7,4.7,1.7c3,0,4.6-1.3,4.7-1.7
			C766.2,204.1,764.5,202.8,761.6,202.8z"/>
	</g>
	<g>
		
			<ellipse transform="matrix(1 -1.703027e-03 1.703027e-03 1 -0.3585 1.2167)" fill="#FDBA63" cx="714.3" cy="211.1" rx="8.2" ry="5.2"/>
		<path fill="#606161" d="M714.3,219.8c-6.6,0-11.7-3.8-11.7-8.7s5.1-8.7,11.7-8.7s11.7,3.8,11.7,8.7S720.8,219.8,714.3,219.8z
			 M714.3,209.4c-3,0-4.6,1.3-4.7,1.7c0.1,0.4,1.7,1.7,4.7,1.7c3,0,4.6-1.3,4.7-1.7C718.9,210.7,717.2,209.4,714.3,209.4z"/>
	</g>
	<g>
		<path fill="#FFFFFF" d="M918.2,745.8l272.9-0.5c0,0-24.6-65.1-105.4-88.7L918.2,745.8z"/>
		<path fill="#606161" d="M1191.1,748.9l-272.9,0.5l-1.6-6.6l167.5-89.1l2.6-0.3c81.6,23.7,106.7,88.1,107.7,90.8L1191.1,748.9z
			 M932.3,742.3l253.4-0.4c-7.4-15.1-35-62.1-99.6-81.4L932.3,742.3z"/>
	</g>
	<g>
		
			<rect x="1043.6" y="620.3" transform="matrix(-1.703067e-03 -1 1 -1.703067e-03 299.7944 1812.6823)" fill="#FFFFFF" width="22.2" height="272.9"/>
		<path fill="#606161" d="M1191.2,771l-272.9,0.5l-3.5-3.5l0-22.2l3.5-3.5l272.9-0.5l3.5,3.5l0,22.2L1191.2,771z M921.8,764.5
			l265.9-0.5l0-15.2l-265.9,0.5L921.8,764.5z"/>
	</g>
	<g>
		
			<rect x="1033.2" y="653.6" transform="matrix(-1.703067e-03 -1 1 -1.703067e-03 266.5284 1846.1187)" fill="#FFFFFF" width="43.1" height="272.9"/>
		<path fill="#606161" d="M1191.2,814.8l-272.9,0.5l-3.5-3.5l-0.1-43.1l3.5-3.5l272.9-0.5l3.5,3.5l0.1,43.1L1191.2,814.8z
			 M921.8,808.3l265.9-0.5l-0.1-36.1l-265.9,0.5L921.8,808.3z"/>
	</g>
	<g>
		<g>
			<path fill="#FDBA63" d="M873.7,236.6l0.1,32.9l157.7,69.5l156.5-75.8c0,0,9.8,4,21.2,1c8.1-2.1,13.7-9.7,13.6-18.1l-0.1-30.4
				L873.7,236.6z"/>
			<path fill="#606161" d="M1030,342.1l-157.7-69.5l-2.1-3.2l-0.1-32.9l3.3-3.5l349.1-21l3.7,3.5l0.1,30.4c0,10.2-6.7,19-16.3,21.5
				c-3.1,0.8-6.3,1.2-9.6,1.2c-5.6,0-10.1-1.1-12.3-1.8L1033,342.1L1030,342.1z M877.3,267.2l154.1,67.9l155-75.1l2.8-0.1
				c0,0,4.8,1.9,11.2,1.9c2.7,0,5.3-0.3,7.9-1c6.5-1.7,11-7.8,11-14.7l0-26.7l-342.1,20.5L877.3,267.2z"/>
		</g>
		<g>
			<path fill="#FFFFFF" d="M1200.3,184.2c-13-11.1-28.5-18.9-44.2-25.6c-40.9-17.4-86.7-21.5-106.7-14.1
				c-20,7.5-18.2,20.5-18.2,20.5l-157.4,71.6l157.7,71l157.4-71.6c0.3,0.1,0.7,0.2,1,0.3c9.8,2.6,22.5,0.2,29.1-8.1
				C1231.2,213,1211.1,193.4,1200.3,184.2z"/>
			<path fill="#606161" d="M1032.8,310.8l-2.9,0l-157.7-71l0-6.4l155.4-70.7c0.5-4.9,3.6-15.2,20.5-21.5c6.5-2.4,15.7-3.7,26.6-3.8
				c25.4,0,56.3,6.6,82.7,17.9c13.5,5.7,30.8,13.9,45.1,26.1c28.6,24.4,26.2,40.1,19.1,48.9c-5.2,6.5-14.1,10.3-23.9,10.4
				c0,0,0,0,0,0c-3,0-5.9-0.3-8.6-1L1032.8,310.8z M882.2,236.6l149.2,67.2l156-70.9l2.5-0.1c0.3,0.1,0.5,0.1,0.8,0.2
				c2.2,0.6,4.6,0.9,7,0.9c7.7,0,14.6-2.9,18.5-7.7c5.2-6.4,6.2-18.5-18.2-39.2c-13.6-11.6-30.3-19.5-43.3-25
				c-25.6-10.9-55.5-17.4-80-17.3c-10,0-18.3,1.2-24.1,3.3c-16.8,6.3-16,16.4-16,16.8l-2,3.6L882.2,236.6z"/>
		</g>
		<g>
			<line fill="#FDBA63" x1="1031.4" y1="307.6" x2="1031.4" y2="338.9"/>
			
				<rect x="1027.9" y="307.6" transform="matrix(1 -1.703027e-03 1.703027e-03 1 -0.5491 1.757)" fill="#606161" width="7" height="31.3"/>
		</g>
		<g>
			<g>
				<path fill="#FDBA63" d="M1146.4,209l-20.3,9.5l0,0l0,0c-1.9,0.8-4.3,1-6.6,0.6c-2.4-0.4-4.8-1.4-6.6-2.9c-3.6-3-3.6-6.8,0.1-8.5
					l14.6-6.8c5-2.4,5.1-7.6,0.2-11.6c-4.9-4-13-5.4-18-3l-38.9,18.3l0,0c0,0,0.1,0,0.1,0c-1.7,0.8-4,1-6.2,0.6
					c-2.3-0.4-4.5-1.3-6.3-2.7c-3.4-2.8-3.4-6.4,0.1-8.1c0,0-0.1,0-0.1,0l-0.2,0.1l0.2-0.1l0,0l22.1-10.4c4.9-2.3,5-7.4,0.2-11.4
					l0,0c-4.8-4-12.7-5.3-17.7-3l-104.9,49.6c-4.9,2.3-5,7.4-0.2,11.4v0c4.8,4,12.7,5.3,17.7,3l2.4-1.1l0,0
					c3.5-1.6,9.1-0.6,12.5,2.2c1.7,1.4,2.6,3,2.5,4.5c0,1.4-0.9,2.7-2.6,3.6c0,0,0,0,0,0l-8.4,4c-5,2.4-5.1,7.6-0.2,11.6
					c4.9,4,13,5.4,18,3l42.4-19.9c3.7-1.7,9.7-0.7,13.3,2.2c1.8,1.5,2.7,3.2,2.7,4.7c0,1.3-0.7,2.6-2.1,3.4l-0.7,0.4l0,0l-23,10.8
					c-4.5,2.1-4.6,6.8-0.2,10.4l0,0c4.4,3.6,11.7,4.9,16.2,2.7l114.1-53.9c4.5-2.1,4.6-6.8,0.2-10.4v0
					C1158.2,208.1,1151,206.9,1146.4,209z"/>
				<path fill="#606161" d="M1043.2,280.7C1043.2,280.7,1043.2,280.7,1043.2,280.7c-4.8,0-9.8-1.7-13.2-4.6
					c-3.3-2.7-4.9-6.1-4.5-9.4c0.4-2.9,2.3-5.5,5.4-6.9l23.4-11c0.2-0.1,0.4-0.3,0.4-0.5c0-0.3-0.3-1.1-1.4-2
					c-1.7-1.4-4.4-2.3-6.8-2.3c-1.1,0-2.1,0.2-2.8,0.5l-42.4,19.9c-2.1,1-4.6,1.5-7.3,1.5c-5.2,0-10.6-1.9-14.4-5
					c-3.5-2.9-5.3-6.6-4.8-10.1c0.4-3.1,2.5-5.8,5.8-7.4l8.4-4c0.4-0.2,0.6-0.4,0.6-0.5c0-0.2-0.2-0.9-1.3-1.7
					c-1.6-1.3-4.1-2.1-6.3-2.1c-1,0-1.9,0.2-2.5,0.5l0,0l-2.4,1.1c-2,1-4.5,1.5-7.2,1.5c-5.2,0-10.5-1.8-14.2-4.9
					c-3.5-2.8-5.2-6.5-4.8-10c0.4-3.1,2.5-5.7,5.7-7.3l104.8-49.6c2.1-1,4.5-1.5,7.2-1.5c5.2,0,10.5,1.8,14.2,4.9
					c3.5,2.8,5.2,6.5,4.8,10c-0.4,3.1-2.5,5.7-5.7,7.3l-22,10.3l0,0c-0.5,0.2-0.6,0.4-0.6,0.5c0,0.1,0.1,0.8,1.3,1.7
					c1.2,1,2.9,1.7,4.6,2c1.6,0.3,3.2,0.2,4.2-0.3l0,0l38.8-18.2c2.1-1,4.6-1.5,7.3-1.5c5.2,0,10.6,1.9,14.4,5
					c3.5,2.9,5.3,6.6,4.8,10.1c-0.4,3.1-2.5,5.8-5.8,7.4l-14.6,6.8c-0.5,0.2-0.7,0.5-0.8,0.7c0,0.2,0.2,1,1.4,2c1.3,1,3.1,1.8,5,2.1
					c1.8,0.3,3.5,0.2,4.6-0.4l20.3-9.5c1.9-0.9,4.2-1.4,6.7-1.4c4.8,0,9.8,1.7,13.2,4.6c3.3,2.7,4.9,6.1,4.5,9.4
					c-0.4,2.9-2.3,5.5-5.4,6.9l-114.1,53.9C1048,280.2,1045.6,280.7,1043.2,280.7z M1056.8,254.9l0,0.5l-23,10.8
					c-0.5,0.2-1.4,0.7-1.5,1.4c-0.1,0.6,0.4,1.8,2,3.1c2.2,1.8,5.6,3,8.8,3h0c1.5,0,2.7-0.3,3.7-0.7l114.1-53.9
					c0.5-0.2,1.4-0.7,1.5-1.4c0.1-0.6-0.4-1.8-2-3.1c-2.2-1.8-5.6-3-8.8-3c-1.5,0-2.7,0.3-3.7,0.7l-20.3,9.5
					c-2.5,1.1-5.6,1.4-8.7,0.9c-3.1-0.5-6-1.8-8.3-3.6c-2.8-2.3-4.2-5.3-3.9-8.2c0.3-2.6,2-4.9,4.7-6.1l14.6-6.9
					c0.8-0.4,1.7-1,1.8-1.9c0.1-0.8-0.5-2.3-2.3-3.8c-2.6-2.1-6.4-3.4-10-3.4c-1.7,0-3.2,0.3-4.3,0.8l-38.9,18.3l0,0
					c-2.3,1-5.2,1.3-8.2,0.8c-3-0.5-5.8-1.7-7.9-3.5c-2.7-2.2-4.1-5.1-3.8-8c0.3-2.5,1.8-4.6,4.3-5.8l0,0l0.2-0.1l22.1-10.4
					c0.7-0.3,1.6-0.9,1.8-1.8c0.1-0.8-0.4-2.2-2.3-3.7c-2.5-2-6.2-3.3-9.8-3.3c-1.6,0-3.1,0.3-4.2,0.8l-104.8,49.6
					c-0.7,0.4-1.7,0.9-1.8,1.8c-0.1,0.8,0.4,2.2,2.3,3.7c2.5,2,6.2,3.3,9.8,3.3c1.6,0,3.1-0.3,4.2-0.8l2.4-1.1l0.1,0l0,0
					c1.6-0.7,3.4-1.1,5.4-1.1c3.9,0,7.9,1.4,10.8,3.7c2.5,2.1,3.9,4.6,3.8,7.3c-0.1,2.8-1.7,5.3-4.6,6.6l0,0l0,0l-8.4,4
					c-0.8,0.4-1.7,1-1.8,1.9c-0.1,0.8,0.5,2.3,2.3,3.8c2.6,2.1,6.4,3.4,10,3.4c1.7,0,3.2-0.3,4.3-0.8l42.4-19.9
					c1.7-0.8,3.6-1.2,5.8-1.2c4.1,0,8.3,1.4,11.3,3.9c2.6,2.1,4,4.8,3.9,7.5c-0.1,2.5-1.4,4.8-3.8,6.3l-0.9,0.5L1056.8,254.9z"/>
			</g>
		</g>
	</g>
	<g>
		<g>
			<g>
				<path fill="#FFFFFF" d="M213,509.4c0,0-18.4,15.1-23.8,45.1c-1.9,10.4,0.5,21,8.6,27.7c7.6,6.3,19.9,12.6,39,12.9
					c50.6,0.8,96.8-13.3,142.7-34.2c23.2-10.6,40.6-18.9,70.6-36.3c17.6-10.2,38.9-23.8,43.3-45.5c0.4-2.1,0.8-4.2,0.9-6.3
					c1-19.5-14.3-34.6-31.7-40.6c-0.7-0.2-1.4-0.5-2.1-0.7C413.6,416.9,213,509.4,213,509.4z"/>
				<path fill="#606161" d="M241.2,598.6C241.2,598.6,241.2,598.6,241.2,598.6c-1.5,0-3,0-4.5,0c-20.8-0.3-33.9-7.6-41.2-13.7
					c-8.5-7-12-18.3-9.8-31c5.5-30.9,24.2-46.6,25-47.2l0.8-0.5c0.4-0.2,43.7-20.1,94.1-39.8c67.9-26.5,115.7-40,142.1-40
					c5.4,0,10,0.6,13.7,1.7c0.8,0.2,1.5,0.5,2.3,0.7c17.8,6.1,35.2,22.1,34,44.1c-0.1,2.5-0.6,4.9-1,6.9
					c-4.7,22.8-25.6,36.6-45,47.8c-28.9,16.8-45.9,25.1-70.9,36.5C329.2,587.6,284.8,598.5,241.2,598.6z M214.9,512.4
					c-2.3,2.1-17.6,16.6-22.3,42.8c-1.8,10.1,0.9,19,7.4,24.4c9.4,7.8,21.7,11.8,36.8,12.1c1.5,0,2.9,0,4.4,0
					c42.6-0.1,86-10.8,136.8-33.9c24.8-11.3,41.6-19.5,70.3-36.2c18-10.4,37.5-23.2,41.6-43.2c0.4-1.8,0.7-3.8,0.8-5.8
					c1-18.3-14-31.9-29.3-37.1c-0.7-0.2-1.4-0.5-2.1-0.7c-3-0.9-6.9-1.4-11.6-1.4C388.3,433.5,224.7,507.9,214.9,512.4z"/>
			</g>
			<g>
				<path fill="#FDBA63" d="M455.3,488.3l-9.2,5.7c-155.6,90.1-210.3,64.2-210.3,64.2c-7.9-2.4-14.8-5.8-20.1-10.2
					c-9.8-8.2-12.8-21-6.7-32.5c0.6-1.1,1.2-2.1,1.8-3.1c0.7-1,1.4-1.9,2.1-2.9c0,0,0,0,0,0l0,0c4.6-5.7,10.7-10.2,16.8-14.4
					c0.4-0.3,0.8-0.6,1.3-0.8c0,0,0,0,0.1-0.1l0,0c2,0.4,17.4,3,19.7-12.4c9.2-5.4,18.7-10.5,28.4-15.3c0,0,20,6,22.5-10.4
					c10.2-4.4,20.6-8.5,31-12.3c0,0,23.1,5.1,22.7-7.7c0,0,0,0,0,0c7.6-2.4,15.3-4.6,22.9-6.7c27.8-10.4,61.3-9.2,81.9,2.1
					c0,0,0,0,0.1,0c2.7,1.5,5.2,3.2,7.4,5C487,452.3,482.3,469.3,455.3,488.3z"/>
			</g>
			<g>
				<path fill="#606161" d="M447.9,496.9l-3.7-6l9.1-5.6c14.7-10.3,22.3-19.8,22.6-28.3c0.2-6.1-3.1-11.9-10.3-17.9
					c-2-1.7-4.3-3.2-6.9-4.6l0,0l-0.1,0c-20.1-11-52.5-11.8-79-1.9l-0.3,0.1c-7.8,2.1-15.5,4.4-22.8,6.7l-1,0.2l0-3.5l-2.5-2.5
					l1.5-0.6l-0.1-0.2c7.3-2.3,15-4.6,22.9-6.7c28.1-10.5,62.8-9.5,84.5,2.3l0,0l0.2,0.1c2.9,1.6,5.6,3.4,8,5.4
					c8.9,7.3,13.2,15.3,12.9,23.5c-0.4,11-8.8,22-25.7,33.8l-0.2,0.1L447.9,496.9z"/>
			</g>
			<g>
				<path fill="#606161" d="M234.8,561.4c-8.5-2.6-15.7-6.2-21.3-10.9c-11.3-9.3-14.3-24.1-7.6-36.8c1.2-2.3,2.7-4.4,4.3-6.5l0,0
					c5-6.2,11.4-10.9,17.6-15l1.3-0.8l0.1,0.1l1.9-0.8l0,3.5l2.5,2.5l-0.1,0.1l0,0l-0.4,0.3l0,0l-1.3,0.9
					c-5.7,3.9-11.6,8.2-16.1,13.7l0,0c-1.4,1.7-2.6,3.5-3.6,5.4c-5.2,9.8-2.9,20.9,5.8,28.1c4.9,4.1,11.3,7.3,18.9,9.6L234.8,561.4z
					"/>
			</g>
		</g>
		<g>
			<path fill="#606161" d="M307.5,524.9c-9.6,0-43.4-1.6-72.8-23.4c-2-1.5-4-3.1-5.8-4.6c-0.1-0.1-0.3-0.2-0.4-0.4l2.7-5l0-0.9
				l0.5,0l0,0l0.2,0c0.4,0.1,1.9,0.3,3.8,0.3c10.3,0,11.5-7.4,11.8-9.8l4.3-2.9c0.3,0.1,6.3,1.6,14.7,5
				c15.7,6.4,36.4,17.9,45.7,36.4l-3,5.1C309.2,524.9,308.6,524.9,307.5,524.9z M241,497.5c23.6,16.5,50.4,19.8,61.9,20.4
				c-10-14.4-28.3-23.6-39.1-27.9c-4.3-1.7-7.9-3-10.4-3.7C251.5,492.1,247.1,496.1,241,497.5z"/>
		</g>
		<g>
			<path fill="#606161" d="M359.3,499.6c-1.5,0-37.2-0.5-69.4-20.9c-4.6-2.9-8.9-6.1-12.9-9.6l3.3-6c0,0,3.2,0.9,6.9,0.9
				c8.8,0,10.6-4.9,11.1-8.5l4.4-2.9c0.4,0.1,9.5,2.6,20.9,8.1c13.2,6.3,30.6,17.3,38.9,33.8L359.3,499.6z M290.7,470.8
				c1,0.7,2,1.3,3,1.9c22.7,14.4,47.8,18.4,59.3,19.4c-8.2-11.8-21.8-20.1-32.4-25.2c-6.7-3.2-12.7-5.4-16.3-6.6
				C302.1,466.2,297.4,469.9,290.7,470.8z"/>
		</g>
		<g>
			<path fill="#606161" d="M407.6,474.3c-7.8,0-35.1-1.2-61.5-16.8c-5.5-3.3-10.7-7-15.5-11.1l3-6.1c0,0,4.3,0.9,8.9,0.9
				c4.2,0,7.3-0.8,8.7-2.2c0.4-0.4,1-1.2,0.9-2.9l3.5-3.6l0.6,0.1c2.1,0.4,12.9,2.4,25,8.1c15,7.1,25.6,16.6,31.6,28.5l-2.9,5.1
				C409.8,474.2,409,474.3,407.6,474.3z M344.4,448.2c1.7,1.1,3.4,2.2,5.2,3.3c21.4,12.7,43.5,15.3,53.9,15.7
				c-5.5-8.1-14-14.9-25.3-20.2c-8-3.8-15.5-5.9-19.7-6.8c-0.5,1.4-1.3,2.6-2.3,3.7C353.7,446.5,349.7,447.9,344.4,448.2z"/>
		</g>
		<g>
			<path fill="#606161" d="M215.6,511.8l-5.2-4.7c8.4-9.2,18.5-15.6,18.9-15.9l2.4-0.5c5.2,0.8,9.1,0.2,11.8-1.9
				c3.5-2.7,3.9-7.2,3.9-7.3l1.5-2.6c6-4.2,27.9-15.1,28.8-15.6l2.4-0.3c6.4,1.6,11.4,1.3,14.5-1c3.3-2.4,3.7-6.3,3.7-6.3l1.9-2.9
				c5.7-2.8,30.3-12,31.4-12.4l1.9-0.2c11.6,2.2,15.9,0.2,17.4-1.1c1.3-1.2,1.2-2.6,1.2-2.7l6.9-0.9c0.1,0.5,0.6,4.9-3.3,8.6
				c-4.2,4-11.8,5.1-22.6,3.2c-4.2,1.6-21.6,8.1-28.3,11.1c-0.6,2.4-2.2,6.4-6.1,9.3c-4.6,3.4-11,4.2-19,2.4
				c-4.3,2.2-19.5,9.9-25.6,13.7c-0.5,2.5-2,7.1-6.2,10.4c-4,3.2-9.4,4.4-16,3.6C229.3,499.6,221.8,504.9,215.6,511.8z"/>
		</g>
	</g>
	<g>
		<g>
			<path fill="#FDBA63" d="M710.6,467.4c-9.5-1.1-19.5-1.7-29.8-1.7c-10.3,0-20.3,0.6-29.8,1.8l-90.9,0.2l0.1,53.8
				c0.1,30.7,54.1,55.4,120.8,55.3c66.7-0.1,120.7-25.1,120.6-55.7l-0.1-53.8L710.6,467.4z"/>
		</g>
		<g>
			<path fill="#606161" d="M680.9,580.3c-69.7,0.1-124.3-25.7-124.3-58.8l-0.1-53.8l3.5-3.5l90.7-0.2c19.5-2.3,40.5-2.3,60.1-0.1
				l90.7-0.2l3.5,3.5l0.1,53.8C805.1,554.2,750.6,580.2,680.9,580.3z M563.5,471.2l0.1,50.3c0,13.4,11.9,26.2,33.4,36
				c22.4,10.2,52.2,15.9,83.9,15.8c31.8-0.1,61.5-5.8,83.9-16.1c21.5-9.9,33.3-22.8,33.3-36.1l-0.1-50.3l-87.4,0.1l-0.4,0
				c-19.1-2.2-39.7-2.2-58.8,0.1l-0.4,0L563.5,471.2z"/>
		</g>
		<g>
			
				<ellipse transform="matrix(1 -1.703027e-03 1.703027e-03 1 -0.7951 1.16)" fill="#FDBA63" cx="680.7" cy="467.5" rx="120.7" ry="55.5"/>
		</g>
		<g>
			
				<ellipse transform="matrix(1 -1.703027e-03 1.703027e-03 1 -0.7951 1.16)" fill="#FFFFFF" cx="680.7" cy="467.5" rx="120.7" ry="55.5"/>
			<path fill="#606161" d="M680.8,526.5c-69.7,0.1-124.3-25.7-124.3-58.8c-0.1-33.1,54.5-59.1,124.1-59.2
				c69.7-0.1,124.3,25.7,124.3,58.8C805,500.4,750.5,526.4,680.8,526.5z M680.7,415.4c-31.8,0.1-61.5,5.8-83.9,16.1
				c-21.5,9.9-33.3,22.8-33.3,36.1c0,13.4,11.9,26.2,33.4,36c22.4,10.2,52.2,15.9,83.9,15.8c31.8-0.1,61.5-5.8,83.9-16.1
				c21.5-9.9,33.3-22.8,33.3-36.1s-11.9-26.2-33.4-36C742.2,421,712.4,415.4,680.7,415.4z"/>
		</g>
		<g>
			<g>
				<path fill="#FDBA63" d="M673.9,382.9c-2.3-2.1-4.6-4.1-7-6.1l0,0c0,0,11.1,22.9-11.4,53.1c-1.1,1.4-2,3-2.8,4.6
					c-4.9,10.2-5.5,21.2,1.1,30.3c13.6,18.7,45.5,16.5,55.4-4.9C722.9,429.9,691.8,399.2,673.9,382.9z"/>
			</g>
			<g>
				<g>
					<path fill="#606161" d="M680,481c-11.7,0-22.6-5.2-29.1-14.2c-6.9-9.5-7.4-21.5-1.5-33.9c0.9-1.9,2-3.6,3.1-5.2
						c20.8-28,11.5-48.6,11.1-49.5l3.3-1.9l2.1-2.3c2.2,1.8,4.5,3.7,7.2,6.2c14.1,12.9,51.7,47,36.1,81.1
						c-5,10.9-15.6,18.2-28.4,19.5C682.6,481,681.3,481,680,481z M672.6,398.6c-1.2,9.3-5,20.7-14.4,33.4c-0.9,1.2-1.7,2.6-2.4,4.1
						c-2.8,5.8-6.4,16.9,0.8,26.7c5.8,7.9,15.9,12.2,26.6,11.1c10.3-1,18.8-6.8,22.8-15.4c9.1-19.8-3.2-40.4-18.6-57.4
						c5.8,13.6,7.8,30.4-5.5,45.1l-5.2-4.7c9.5-10.5,10.8-23.6,3.8-38.9c1.6,11.2-0.2,24.1-11.1,35.1l-5-4.9
						C674.9,422.1,675.2,409.1,672.6,398.6z"/>
				</g>
			</g>
		</g>
		<g>
			<path fill="#FFFFFF" d="M758.6,509.8l0.1,33.3c0,7.8-6.1,16.8-13.8,19.3c-7.7,2.6-14.1-2.3-14.1-10.1l0-14.6
				c-0.1-3.8-1.6-6.9-4.1-8.8c-2.6-2-6.1-2.8-10-2.1c-7.8,1.4-14.2,8.2-14.3,16l0,5.7c0,2.5-1,4.8-2.7,6.6c-1.6,1.8-3.9,3-6.4,3.1
				c-5,0.3-9.1-3.6-9.1-8.5l0,1.5c0-2.6-1.1-4.9-2.9-6.6c-1.8-1.7-4.2-2.8-7-2.9c-5.4-0.2-9.7,3.7-9.8,8.9l0,6.8
				c0,6.8-5.6,11.9-12.4,10.9c-6.9-1-12.4-7.6-12.4-14.4l0-6.9c-0.1-2.6-1.1-5.1-2.8-7.2c-1.8-2.1-4.2-3.8-6.8-4.4
				c-5.2-1.3-9.5,1.6-9.5,6.8c0,8.8,0,0.9,0,9.7c0,4.9-3.9,7.7-8.7,6c-4.8-1.7-8.7-7.3-8.7-12.2l-0.1-35.6c21,8.1,48.2,13,77.8,12.9
				C710.5,522.9,737.6,518,758.6,509.8z"/>
			<path fill="#606161" d="M653.8,571.9c-0.7,0-1.5,0-2.2-0.2c-8.5-1.2-15.4-9.2-15.4-17.8l0-6.9c0-1.6-0.8-3.4-2-5
				c-1.3-1.6-3.1-2.8-5-3.3c-0.6-0.1-1.1-0.2-1.6-0.2c-2.2,0-3.5,1.3-3.5,3.7l0,9.7c0,5.8-4,10-9.5,10c-1.3,0-2.6-0.2-4-0.7
				c-6.1-2.2-11-9-11-15.5l-0.1-35.6l4.8-3.3c21.3,8.2,48.5,12.7,76.5,12.7c28.1,0,55.2-4.7,76.5-13l4.8,3.3l0.1,33.3
				c0,9.5-7.2,19.7-16.2,22.7c-5.6,1.9-11.3,0.6-14.9-3.2c-2.5-2.6-3.8-6.2-3.8-10.2l0-14.6c0-2.5-1-4.7-2.8-6
				c-1.9-1.4-4.5-1.9-7.3-1.4c-6.3,1.1-11.3,6.7-11.4,12.6l0,5.6c0,3.3-1.3,6.5-3.6,9c-2.3,2.5-5.5,4-8.8,4.2c-0.3,0-0.5,0-0.8,0
				c-6.1,0-11.2-4.6-12-10.5l-0.1,0c0-1.6-0.7-3.1-1.8-4.2c-1.2-1.2-2.9-1.9-4.6-1.9l-0.2,0c-3.4,0-5.9,2.3-6,5.5l0,6.8
				C668,565.5,661.8,571.9,653.8,571.9z M627.5,531.5c1.1,0,2.2,0.1,3.4,0.4c3.3,0.8,6.4,2.8,8.6,5.6c2.3,2.8,3.6,6.1,3.6,9.4l0,7
				c0,5.1,4.4,10.2,9.4,10.9c4.7,0.7,8.5-2.7,8.5-7.4l0-6.8c0.1-7,5.8-12.4,13-12.5l0.4,0c3.5,0.1,6.8,1.5,9.3,3.9
				c2.1,2.1,3.5,4.7,3.8,7.6l0.1,0c0,2.9,2.4,5.2,5.4,5c1.5-0.1,3-0.8,4.1-2c1.1-1.2,1.7-2.7,1.7-4.2l0-5.7
				c0.1-8,5.5-15.2,13.1-18.3c-10.1,1.2-20.5,1.9-31.1,1.9c-26.8,0-53-4-74.3-11.4l0.1,30.6c0,3.6,3,7.7,6.4,9
				c0.6,0.2,1.1,0.3,1.6,0.3c2.2,0,2.5-2.1,2.5-3l0-9.7C617.1,536,621.5,531.6,627.5,531.5z M721.4,523.2c2.8,0.3,5.3,1.3,7.4,2.9
				c3.5,2.6,5.4,6.7,5.5,11.5l0,14.6c0,2.2,0.7,4.1,1.9,5.4c1.8,1.9,4.6,2.4,7.6,1.4c6.1-2,11.4-9.5,11.4-16l0-28.3
				C744.8,518.4,733.4,521.3,721.4,523.2z"/>
		</g>
	</g>
	<g>
		<g>
			<g>
				<polygon fill="#FFFFFF" points="1109.5,449.3 1039.4,417.7 969.3,449.5 886.1,449.6 886.2,515.2 886.2,516.6 1039.7,585.7 
					1192.8,516.1 1192.7,449.1 				"/>
				<path fill="#606161" d="M1041.1,588.9l-2.9,0l-153.4-69.1l-2.1-3.2l-0.1-67l3.5-3.5l82.5-0.1l69.3-31.5l2.9,0l69.5,31.3
					l82.5-0.1l3.5,3.5l0.1,67l-2,3.2L1041.1,588.9z M889.7,514.4l149.9,67.5l149.7-68l-0.1-61.2l-79.7,0.1l-1.4-0.3l-68.7-30.9
					l-68.6,31.2l-1.4,0.3l-79.7,0.1L889.7,514.4z"/>
			</g>
			<g>
				<polygon fill="#FDBA63" points="1039.5,518.8 886.1,449.6 1039.3,380 1192.7,449.1 				"/>
				<path fill="#606161" d="M1041,521.9l-2.9,0l-153.4-69.1l0-6.4l153.2-69.6l2.9,0l153.4,69.1l0,6.4L1041,521.9z M894.6,449.6
					l144.9,65.3l144.7-65.8l-144.9-65.3L894.6,449.6z"/>
			</g>
			<g>
				<line fill="#FFFFFF" x1="1039.7" y1="585.7" x2="1039.5" y2="518.8"/>
				
					<rect x="1036.1" y="518.8" transform="matrix(1 -1.703027e-03 1.703027e-03 1 -0.939 1.7713)" fill="#606161" width="7" height="67"/>
			</g>
		</g>
		<g>
			<polygon fill="#FFFFFF" points="886.2,499.4 886.2,471.2 1039.6,539.4 1039.6,567.3 			"/>
			<path fill="#606161" d="M1038.2,570.5l-153.4-67.9l-2.1-3.2l0-28.2l4.9-3.2l153.4,68.2l2.1,3.2l0,27.9L1038.2,570.5z
				 M889.7,497.1l146.4,64.8l0-20.2l-146.4-65.1L889.7,497.1z"/>
		</g>
		<g>
			<polygon fill="#FFFFFF" points="1192.8,498.9 1192.8,472.4 1039.6,539.4 1039.6,567.3 			"/>
			<path fill="#606161" d="M1041.1,570.5l-4.9-3.2l0-27.9l2.1-3.2l153.2-67l4.9,3.2l0,26.5l-2.1,3.2L1041.1,570.5z M1043.1,541.7
				l0,20.2l146.2-65.3l0-18.8L1043.1,541.7z"/>
		</g>
		<g>
			<path fill="#FDBA63" d="M1168.3,497.8L1168.3,497.8c-4.7,2.2-8.6,0.2-8.6-4.6l0-29l17.2-7.8l0,28.8
				C1176.9,489.9,1173,495.6,1168.3,497.8z"/>
			<path fill="#606161" d="M1164.6,502.2c-5,0-8.5-3.7-8.5-9l0-29l2.1-3.2l17.2-7.8l4.9,3.2l0,28.8c0,6.1-4.6,13-10.6,15.8
				C1168,501.8,1166.3,502.2,1164.6,502.2z M1163.1,466.4l0,26.8c0,2,1,2,1.5,2c0.4,0,1.2-0.1,2.2-0.6c3.5-1.6,6.6-6.1,6.6-9.4
				l0-23.4L1163.1,466.4z"/>
		</g>
		<g>
			<g>
				<g>
					<path fill="#FFFFFF" d="M1046.4,446.5c0,0,7.1-37.8,50-22.2C1096.3,424.3,1096.5,461.1,1046.4,446.5z"/>
					<path fill="#606161" d="M1067.4,453.4c-6.5,0-13.9-1.2-22-3.5l-2.5-4c0.1-0.3,5.7-28.8,34.4-28.8c6.1,0,13,1.3,20.2,4l2.3,3.3
						c0,0.5-0.1,11.9-8.5,20.4C1085.6,450.5,1077.6,453.4,1067.4,453.4z M1050.6,444.1c6.2,1.6,11.8,2.4,16.7,2.4
						c20.3,0,24.4-13.9,25.2-19.7c-5.6-1.8-10.7-2.7-15.3-2.7C1059.3,424.1,1052.7,437.8,1050.6,444.1z"/>
				</g>
				<g>
					<line fill="#FFFFFF" x1="1046.4" y1="446.5" x2="1080.5" y2="432.3"/>
					
						<rect x="1060" y="420.9" transform="matrix(0.3852 0.9228 -0.9228 0.3852 1059.3386 -711.2394)" fill="#606161" width="7" height="37"/>
				</g>
			</g>
			<g>
				<g>
					<g>
						<circle fill="#FFFFFF" cx="1038.4" cy="445.1" r="21.3"/>
						<path fill="#606161" d="M1038.4,469.9c-13.7,0-24.8-11.1-24.8-24.7c0-13.7,11.1-24.8,24.7-24.8c13.7,0,24.8,11.1,24.8,24.7
							S1052.1,469.9,1038.4,469.9z M1038.3,427.3c-9.8,0-17.8,8-17.8,17.8c0,9.8,8,17.8,17.8,17.8c9.8,0,17.8-8,17.8-17.8
							C1056.1,435.3,1048.1,427.3,1038.3,427.3z"/>
					</g>
					<g>
						<path fill="#FFFFFF" d="M1032.1,405.2c0,0,9.2,6.1,6.2,18.6"/>
						<path fill="#606161" d="M1041.7,424.7l-6.8-1.6c2.4-10.1-4.7-14.8-4.7-14.9l3.8-5.8C1034.5,402.6,1045.3,409.9,1041.7,424.7z"
							/>
					</g>
				</g>
				<g>
					<path fill="#FFFFFF" d="M1044.9,436.5c0,0,10.8,10-1.5,18.8"/>
					<path fill="#606161" d="M1045.4,458.1l-4.1-5.7c2.8-2,4.3-4.1,4.4-6.3c0.3-3.7-3.2-7-3.3-7.1l4.7-5.1c0.2,0.2,5.9,5.5,5.5,12.6
						C1052.5,450.9,1050.1,454.8,1045.4,458.1z"/>
				</g>
			</g>
		</g>
		<g>
			<g>
				<path fill="#FFFFFF" d="M972.3,446c-3.9-0.8-12.5-2.7-15.2-3.2c-1.5-0.3-2.7-0.3-3.7-0.2c-1.5,0.2-2.6,1.1-2.5,2.2
					c0.1,0.7,0.4,1.5,1.2,2.4c1.5,1.6,6.4,6.7,8.6,9c1.2,1.3,3.1,2.2,5.3,2.6c2.7,0.5,6.5,0.3,10.1-2.8c3.4-3,3-5.3,1.7-7
					C976.6,447.5,974.6,446.5,972.3,446z"/>
				<path fill="#606161" d="M968.2,462.4C968.2,462.4,968.2,462.4,968.2,462.4c-1,0-2-0.1-2.9-0.3c-2.8-0.5-5.4-1.8-7.1-3.6
					c-2.6-2.7-7.3-7.5-8.7-9.1c-1.1-1.3-1.8-2.7-2-4.2c-0.2-1.3,0.2-2.6,1-3.7c1-1.3,2.7-2.2,4.6-2.4c1.4-0.1,3.1-0.1,4.8,0.2
					c2.7,0.5,10.8,2.3,15.3,3.3c3.1,0.7,5.7,2.2,7.3,4.2c1.1,1.4,4.2,6.3-2.2,11.8C975.3,461.1,971.9,462.4,968.2,462.4z
					 M955.9,446.1c1.5,1.6,4,4.2,7.3,7.5c0.8,0.8,2,1.4,3.4,1.6c2.6,0.5,5-0.2,7.2-2c1.2-1,1.4-1.7,1.4-1.8c0,0,0-0.1-0.2-0.3
					c-0.6-0.7-1.8-1.4-3.4-1.7c-3.6-0.8-12.4-2.7-15.1-3.2C956.3,446.2,956.1,446.1,955.9,446.1z"/>
			</g>
		</g>
		<g>
			<g>
				<path fill="#FFFFFF" d="M1121,446.7c3.4-0.8,11.1-2.5,13.6-2.9c1.3-0.3,2.4-0.2,3.3-0.2c1.4,0.1,2.4,1,2.2,1.9
					c-0.1,0.6-0.4,1.3-1,2.1c-1.3,1.5-5.7,6-7.6,8c-1.1,1.1-2.7,2-4.7,2.4c-2.4,0.5-5.8,0.3-9-2.5c-3.1-2.6-2.7-4.7-1.5-6.2
					C1117.2,448.1,1118.9,447.2,1121,446.7z"/>
				<path fill="#606161" d="M1124.7,461.8c-3.4,0-6.6-1.2-9.2-3.5c-4.7-4-4.1-8.3-2-11c1.5-1.9,3.9-3.3,6.8-3.9
					c4.1-0.9,11.3-2.5,13.7-3c1.5-0.3,3.1-0.3,4.4-0.2c1.8,0.2,3.4,1,4.3,2.3c0.8,1.1,1.2,2.3,1,3.6c-0.2,1.4-0.8,2.8-1.9,3.9
					c-1.4,1.5-5.9,6.2-7.7,8.1c-1.6,1.7-4,2.9-6.6,3.4C1126.5,461.7,1125.6,461.8,1124.7,461.8z M1118.9,451.6
					c0.1,0.2,0.3,0.6,1.1,1.3c1.8,1.6,3.8,2.1,6.1,1.7c1.2-0.2,2.2-0.7,2.8-1.3c1-1.1,3.7-3.9,5.7-5.9c-2.9,0.6-9.9,2.1-12.9,2.8
					C1120.2,450.5,1119.3,451.1,1118.9,451.6C1118.9,451.6,1118.9,451.6,1118.9,451.6z"/>
			</g>
		</g>
		<g>
			<polygon fill="#FDBA63" points="1039.6,567.3 1192.8,498.9 1192.8,516.1 1039.7,585.7 			"/>
			<path fill="#606161" d="M1041.1,588.9l-4.9-3.2l0-18.4l2.1-3.2l153.2-68.4l4.9,3.2l0,17.2l-2.1,3.2L1041.1,588.9z M1043.1,569.6
				l0,10.8l146.2-66.5l0-9.6L1043.1,569.6z"/>
		</g>
		<g>
			<polygon fill="#FDBA63" points="1039.6,567.3 886.2,499.4 886.2,516.6 1039.7,585.7 			"/>
			<path fill="#606161" d="M1038.2,588.9l-153.4-69.1l-2.1-3.2l0-17.2l4.9-3.2l153.4,67.9l2.1,3.2l0,18.4L1038.2,588.9z
				 M889.7,514.4l146.4,66l0-10.8l-146.4-64.8L889.7,514.4z"/>
		</g>
		<g>
			<path fill="#FDBA63" d="M1039.5,518.8l-15.7-7.1v0l-10.9-4.9v0l-13-5.9l0.1,35.7c0,3.6,2.9,7.8,6.5,9.4c3.6,1.6,6.5,0,6.5-3.5
				l0-5.4h0c0-3,2.4-4.3,5.4-3c1.5,0.7,2.9,1.9,3.9,3.3c1,1.4,1.6,3.1,1.6,4.6l0,11.5c0,4.3,3.5,9.4,7.8,11.4v0
				c4.3,2,7.8,0.1,7.8-4.3l0-13.7L1039.5,518.8z"/>
			<path fill="#606161" d="M1035.1,569.1C1035,569.1,1035,569.1,1035.1,569.1c-1.5,0-3.1-0.4-4.7-1.1c-5.5-2.5-9.9-8.9-9.9-14.6
				l0-11.5c0-0.7-0.4-1.7-1-2.6c-0.7-1-1.5-1.7-2.4-2.1c-0.2-0.1-0.4-0.1-0.5-0.2l0,5.4c0,4.4-3.1,7.7-7.3,7.7c-1.4,0-2.7-0.3-4.1-1
				c-4.9-2.2-8.5-7.6-8.5-12.6l-0.1-35.7l4.9-3.2l39.5,18l2.1,3.2l0.1,41.8c0,2.4-0.8,4.5-2.2,6.1
				C1039.4,568.2,1037.4,569.1,1035.1,569.1z M1016.2,530c1.2,0,2.5,0.3,3.7,0.9c2,0.9,3.9,2.5,5.3,4.5c1.4,2.1,2.2,4.4,2.2,6.5
				l0,11.5c0,3,2.7,6.8,5.8,8.2c0.8,0.4,1.4,0.5,1.8,0.5l0,0c0.2,0,0.6,0,0.7-0.2c0.2-0.2,0.3-0.7,0.3-1.3l-0.1-39.5l-32.5-14.8
				l0.1,30.3c0,2.2,2.1,5.2,4.4,6.3c1,0.5,1.4,0.3,1.5,0.3c0,0,0.1-0.2,0.1-0.6l0-5.4C1009.5,532.9,1012.3,530,1016.2,530z"/>
		</g>
	</g>
	<g>
		<g>
			<path fill="#FDBA63" d="M461.6,759.2c0-13.3-6-33-6-33l-74.3-8.8l0,16.4c-31.9-5.9-66.5-5.4-96.2,0.2l0-16.5l-74.7,12.2
				c0,0-5.4,16.5-5.4,29.9c0,13.3,6.1,31.2,6.1,31.2c4.9,18.4,30.6,35.2,71.4,43.3c61.9,12.4,134.9,0.1,163-27.5
				c5.2-5.1,8.4-10.3,10-15.5h0C455.6,791.2,461.7,772.5,461.6,759.2z"/>
		</g>
		<g>
			<path fill="#606161" d="M333.4,842.5c-17.8,0-35.1-1.6-51.5-4.9c-40.9-8.2-68.5-25.3-74-45.8c-0.6-1.7-6.2-19-6.2-32.2
				c0-13.7,5.3-30.3,5.6-31l2.8-2.4l74.7-12.2l4.1,3.4l0,12.3c14.4-2.5,29.4-3.8,44.9-3.8c15.2,0,30.1,1.2,44.3,3.6l0-12.2l3.9-3.5
				l74.3,8.8l2.9,2.5c0.2,0.8,6.1,20.3,6.1,34c0,13.7-5.9,32.3-6.2,33.1c-1.7,5.8-5.4,11.6-10.9,16.9
				C427.5,829.3,382.5,842.4,333.4,842.5z M213.2,732.9c-1.4,4.7-4.6,16.8-4.6,26.8c0,12.5,5.7,29.4,5.9,30.1l0.1,0.3
				c4.6,17.6,31,33.2,68.7,40.8c15.9,3.2,32.8,4.8,50.1,4.7c47.4-0.1,90.5-12.4,109.8-31.3c4.6-4.5,7.7-9.2,9.1-14l0.1-0.1l-0.1,0
				c0.1-0.2,5.9-18.2,5.8-30.9c0-10.1-3.7-24.4-5.2-29.8l-68-8.1l0,12.5l-4.1,3.4c-15.1-2.8-30.9-4.2-47.2-4.2
				c-16.5,0-32.5,1.5-47.7,4.4l-4.2-3.4l0-12.4L213.2,732.9z"/>
		</g>
		<g>
			<path fill="#FFFFFF" d="M445.4,755.4c-28.1,27.6-101.1,39.9-163,27.5s-89.3-44.8-61.2-72.3s101.1-39.9,163-27.5
				S473.6,727.8,445.4,755.4z"/>
			<path fill="#606161" d="M333.2,791.2c-17.8,0-35.1-1.6-51.5-4.9c-40.2-8-67.8-24.9-73.8-45c-2.4-8-2.4-20.2,10.9-33.2
				c20.6-20.1,65.6-33.2,114.7-33.3c17.8,0,35.1,1.6,51.5,4.9c40.2,8,67.8,24.9,73.8,45c2.4,8,2.4,20.2-10.9,33.2
				C427.3,778,382.3,791.1,333.2,791.2z M333.5,681.8c-47.4,0.1-90.5,12.4-109.8,31.3c-8.7,8.5-11.7,17.3-9.1,26.3
				c5.2,17.3,31.4,32.7,68.5,40.1c15.9,3.2,32.8,4.8,50.1,4.7c47.4-0.1,90.5-12.4,109.8-31.3c8.7-8.5,11.7-17.3,9.1-26.3
				c-5.2-17.3-31.4-32.7-68.5-40.1C367.7,683.3,350.8,681.7,333.5,681.8z"/>
		</g>
		<g>
			<path fill="#FDBA63" d="M372.1,740.7c-9.7,9.5-34.9,13.7-56.2,9.5c-21.4-4.3-30.8-15.4-21.1-24.9c9.7-9.5,34.9-13.7,56.2-9.5
				C372.3,720.1,381.8,731.2,372.1,740.7z"/>
		</g>
		<g>
			<path fill="#606161" d="M333.4,755.4c-6.3,0-12.4-0.6-18.2-1.7c-14.9-3-24.9-9.2-27.2-17.1c-1.4-4.7,0.1-9.6,4.4-13.8
				c7.6-7.5,23.4-12.1,41.2-12.1c6.3,0,12.4,0.6,18.2,1.7c14.9,3,24.9,9.2,27.2,17.1c1.4,4.7-0.1,9.6-4.4,13.8
				C366.9,750.7,351.2,755.3,333.4,755.4z M333.5,717.6c-15.5,0-30.1,4.1-36.3,10.1c-2.3,2.3-3.2,4.6-2.5,6.8
				c1.1,3.9,7.6,9.4,21.9,12.2c5.3,1.1,11,1.6,16.8,1.6c15.5,0,30.1-4.1,36.3-10.1c2.3-2.3,3.2-4.6,2.5-6.8
				c-1.1-3.9-7.6-9.4-21.9-12.2C345,718.1,339.3,717.6,333.5,717.6z"/>
		</g>
		<g>
			<path fill="#606161" d="M333.4,755.4c-6.3,0-12.4-0.6-18.2-1.7c-14.9-3-24.9-9.2-27.2-17.1c-1.4-4.7,0.1-9.6,4.4-13.8
				c7.6-7.5,23.4-12.1,41.2-12.1c6.3,0,12.4,0.6,18.2,1.7c14.9,3,24.9,9.2,27.2,17.1c1.4,4.7-0.1,9.6-4.4,13.8
				C366.9,750.7,351.2,755.3,333.4,755.4z M333.5,717.6c-15.5,0-30.1,4.1-36.3,10.1c-2.3,2.3-3.2,4.6-2.5,6.8
				c1.1,3.9,7.6,9.4,21.9,12.2c5.3,1.1,11,1.6,16.8,1.6c15.5,0,30.1-4.1,36.3-10.1c2.3-2.3,3.2-4.6,2.5-6.8
				c-1.1-3.9-7.6-9.4-21.9-12.2C345,718.1,339.3,717.6,333.5,717.6z"/>
		</g>
		<g>
			
				<rect x="251.2" y="705.8" transform="matrix(0.5716 0.8206 -0.8206 0.5716 695.5665 97.2363)" fill="#606161" width="7" height="17.7"/>
		</g>
		<g>
			
				<rect x="248.2" y="742.9" transform="matrix(0.8566 0.5159 -0.5159 0.8566 421.7325 -24.8677)" fill="#606161" width="14.9" height="7"/>
		</g>
		<g>
			
				<rect x="276.7" y="754.3" transform="matrix(0.3432 0.9393 -0.9393 0.3432 900.671 237.9949)" fill="#606161" width="7" height="17.4"/>
		</g>
		<g>
			
				<rect x="231" y="732.1" transform="matrix(0.3434 0.9392 -0.9392 0.3434 844.9051 262.8127)" fill="#606161" width="7" height="7.2"/>
		</g>
		<g>
			
				<rect x="267.5" y="728.3" transform="matrix(0.3434 0.9392 -0.9392 0.3434 865.3425 226.0064)" fill="#606161" width="7" height="7.2"/>
		</g>
		<g>
			
				<rect x="375.6" y="703" transform="matrix(0.9846 0.1746 -0.1746 0.9846 129.1864 -55.3662)" fill="#606161" width="7.2" height="7"/>
		</g>
		<g>
			
				<rect x="422.1" y="718.7" transform="matrix(0.5251 0.8511 -0.8511 0.5251 816.8082 -19.2499)" fill="#606161" width="7.2" height="7"/>
		</g>
		<g>
			
				<rect x="398.8" y="749.6" transform="matrix(0.9576 0.2882 -0.2882 0.9576 234.1185 -84.0077)" fill="#606161" width="7.2" height="7"/>
		</g>
		<g>
			
				<rect x="311.1" y="764.7" transform="matrix(0.3434 0.9392 -0.9392 0.3434 928.1136 209.0518)" fill="#606161" width="7" height="7.2"/>
		</g>
		<g>
			
				<rect x="407.3" y="738.8" transform="matrix(0.9439 0.3303 -0.3303 0.9439 268.5495 -95.6816)" fill="#606161" width="17" height="7"/>
		</g>
		<g>
			
				<rect x="400.7" y="697.8" transform="matrix(0.3434 0.9392 -0.9392 0.3434 928.8644 84.2688)" fill="#606161" width="7" height="17.4"/>
		</g>
		<g>
			
				<rect x="345.2" y="688.2" transform="matrix(0.3547 0.935 -0.935 0.3547 876.338 123.5278)" fill="#606161" width="7" height="16.8"/>
		</g>
		<g>
			
				<rect x="291.9" y="698.2" transform="matrix(0.9726 0.2324 -0.2324 0.9726 171.2707 -50.5453)" fill="#606161" width="16.5" height="7"/>
		</g>
		<g>
			
				<rect x="340.5" y="762.4" transform="matrix(0.9492 0.3146 -0.3146 0.9492 258.6212 -70.6115)" fill="#606161" width="15" height="7"/>
		</g>
		<g>
			
				<rect x="379.3" y="753.8" transform="matrix(0.431 0.9023 -0.9023 0.431 905.5525 88.3078)" fill="#606161" width="7" height="16.8"/>
		</g>
	</g>
	<g>
		<g>
			<path fill="#FFFFFF" d="M799.6,776.3l-0.1-30.2l-42.6-0.2c-21.9-6.6-50.5-10.5-81.8-10.5c-29.7,0.1-57,3.7-78.4,9.8l-46-0.2
				l0.1,33.7c0,23.8,55.8,42,124.6,41.9c68.7-0.1,124.5-18.5,124.4-42.3C799.7,777.7,799.7,777,799.6,776.3z"/>
			<path fill="#606161" d="M675.3,824.2c-73,0.1-128-19.4-128.1-45.4l-0.1-33.7l3.5-3.5l45.5,0.2c22.3-6.3,50.3-9.7,78.9-9.8
				c30.2-0.1,59.4,3.7,82.3,10.5l42.1,0.2l3.5,3.5l0.1,29.9c0.1,0.8,0.1,1.6,0.2,2.3C803.3,804.4,748.3,824.1,675.3,824.2z
				 M554.2,748.6l0.1,30.2c0,9.7,12.5,19.4,34.1,26.6c23,7.7,53.9,11.9,86.9,11.8c33.1-0.1,63.9-4.4,86.9-12.1
				c21.6-7.3,34-17,34-26.7c0-0.5,0-1-0.1-1.6l0-0.5l0-26.7l-39.1-0.2l-1-0.1c-22.3-6.7-51-10.4-80.8-10.3
				c-28.2,0-55.7,3.5-77.5,9.6l-1,0.1L554.2,748.6z"/>
		</g>
		<g>
			<path fill="#FDBA63" d="M626.6,707.9L626.6,707.9c-14.4,1.4-28,4.1-39.2,8.2c-12.3,4.5-36,13.5-36.5,28.9
				c-0.5,14.9,19.4,25.9,31.2,30.6c41.8,16.4,94.5,14.6,138.8,10.7c28.5-2.5,78.7-16.3,78.6-40.2
				C799.5,710.1,682.7,696.5,626.6,707.9z"/>
		</g>
		<g>
			<path fill="#606161" d="M668.7,792.3c-46.1,0.1-70.9-6.8-87.9-13.5c-31.7-12.4-33.6-29.1-33.4-34c0.6-18,26.4-27.5,38.8-32.1
				c11.4-4.2,25.2-7,39.7-8.4l0,0c23.1-4.7,57.4-5.3,89.5-1.5c20.7,2.4,58.3,8.8,77,24c7,5.7,10.6,12.2,10.6,19.2
				c0,27.5-55.1,41.3-81.8,43.7C701.1,791.5,683.8,792.3,668.7,792.3z M627.3,711.3c-14.2,1.3-27.6,4-38.7,8.1
				c-10.1,3.7-33.8,12.4-34.2,25.8c-0.4,11.5,15.4,21.9,29,27.2c41.6,16.3,95.2,14.1,137.2,10.4c12.7-1.1,32.2-4.8,49-11.8
				c12.1-5.1,26.5-13.5,26.5-24.9c0-4.8-2.7-9.4-8.1-13.8c-16.9-13.8-56.6-22.3-95.5-24.4c5.9,1.3,11.5,2.9,16.7,4.8
				c14.2,5.2,22,12.6,22,20.8c0,8.2-7.9,15.7-22.2,20.9c-21.9,8.1-57.6,8.1-79.5,0.1c-12.4-4.5-15-10.4-15-14.5
				c0-4.1,2.6-10,15-14.6c14.5-5.3,37.2-5.4,51.7-0.1c8.9,3.3,10.3,8,10.3,10.5c0,2.5-1.3,7.2-10.3,10.5c-9.5,3.5-24.3,3.5-33.8,0.1
				c-6.3-2.3-7.6-5.5-7.6-7.9c0-2.3,1.3-5.6,7.5-7.9c6.4-2.4,16.3-2.4,22.7,0c4.8,1.7,5.8,4.3,5.8,6.2c0,1.3-0.5,2.9-2.3,4.4
				c2-0.4,3.8-0.8,5.5-1.4c4.3-1.6,5.7-3.3,5.7-4c0-0.6-1.4-2.4-5.7-3.9c-12.9-4.7-34-4.7-46.9,0.1c-7.7,2.8-10.4,6.1-10.4,8
				c0,1.9,2.7,5.1,10.4,7.9c20.6,7.5,54.1,7.5,74.7-0.1c11-4,17.6-9.4,17.6-14.4c0-4.9-6.5-10.2-17.4-14.2
				C685.2,711.4,654.9,708.8,627.3,711.3C627.3,711.3,627.3,711.3,627.3,711.3L627.3,711.3z M647,738.5c0.5,0.3,1.3,0.8,2.7,1.3
				c0.4,0.1,0.8,0.3,1.2,0.4c-0.6-1-0.6-1.9-0.6-2.3c0-0.2,0-0.6,0.1-1c-0.3,0.1-0.5,0.2-0.7,0.3C648.3,737.7,647.5,738.2,647,738.5
				z"/>
		</g>
		<g>
			<path fill="#FFFFFF" d="M833.7,801.5l12-27.7l-38.9-17.2c-17.4-14.8-42.1-29.8-70.7-42.3c-27.3-11.9-53.7-19.4-75.8-22.4
				l-42.1-18.6l-13.5,30.9C595.2,726,639,765,702,792.5c63,27.4,121.5,32.8,131,11C833.3,802.8,833.5,802.2,833.7,801.5z"/>
			<path fill="#606161" d="M798.9,820.4C798.9,820.4,798.9,820.4,798.9,820.4c-26.2,0-62-9-98.3-24.8c-31-13.5-58.3-30.1-76.8-46.8
				c-19.6-17.7-27.6-34-22.3-46l13.5-31l4.6-1.8l41.7,18.4c22.9,3.2,50,11.2,76.2,22.6c27.7,12,53,27.1,71.2,42.5l38.5,17l1.8,4.6
				L837,802.7c-0.2,0.8-0.5,1.5-0.8,2.2C831.8,815,818.9,820.4,798.9,820.4z M619.9,677.9l-12.1,27.7c-3.9,8.9,3.6,22.8,20.6,38.1
				c18,16.2,44.6,32.4,74.9,45.6c35.5,15.4,70.3,24.2,95.5,24.2c0,0,0,0,0,0c16.7,0,27.7-4.1,30.8-11.4c0.2-0.5,0.4-1,0.5-1.5
				l0.2-0.5l10.6-24.5l-35.8-15.8l-0.8-0.5c-17.8-15.1-42.6-29.9-69.9-41.8c-25.9-11.2-52.4-19.1-74.9-22.2l-0.9-0.3L619.9,677.9z"
				/>
		</g>
		<g>
			<path fill="#FDBA63" d="M702.5,669.6L702.5,669.6c-13.7-4.5-27.3-7.4-39.2-8.2c-13.1-0.8-38.4-2-45,11.9
				c-6.4,13.5,7.4,31.5,16.4,40.5c31.8,31.8,80.8,51.2,122.9,65.3c27.1,9.1,78.6,16.5,88.1-5.3C860.1,740.8,758.5,681.5,702.5,669.6
				z"/>
		</g>
		<g>
			<path fill="#606161" d="M810.1,791.5c-19.1,0-40.5-4.6-53.6-9.1c-77.5-26-107.1-49-124.3-66.2c-24.1-24.1-19.1-40.1-17.1-44.5
				c7.8-16.3,35.2-14.7,48.4-13.9c12.1,0.7,25.9,3.7,39.8,8.2l0,0c23,4.9,54.7,18.1,82.7,34.4c18,10.5,49.9,31.4,60.9,52.8
				c4.2,8.1,4.9,15.4,2.1,21.8C843.6,787.4,827.8,791.5,810.1,791.5z M651.3,664.5c-11.6,0-25.7,1.7-29.8,10.3
				c-5,10.4,5.3,26.2,15.7,36.5c31.6,31.6,81.6,51.1,121.6,64.5c12.1,4.1,31.5,8.5,49.6,8.8c13.1,0.2,29.7-1.8,34.2-12.2
				c1.9-4.4,1.3-9.7-1.9-15.8c-10-19.4-42.9-43.1-77.8-60.6c4.9,3.6,9.4,7.3,13.4,11c10.9,10.4,15.1,20.3,11.8,27.8
				c-3.3,7.6-13.5,11.2-28.7,10.3c-23.3-1.4-56-15.6-72.9-31.7c-9.5-9.1-9.6-15.5-7.9-19.3c1.6-3.8,6.4-8.1,19.6-7.3
				c15.4,0.9,36.2,10,47.4,20.6c6.9,6.6,6.2,11.4,5.2,13.7c-1,2.3-4.1,6.1-13.7,5.5c-10.1-0.6-23.7-6.5-31-13.5
				c-4.9-4.6-4.8-8.1-3.8-10.3c0.9-2.1,3.4-4.6,10-4.2c6.8,0.4,15.9,4.3,20.8,9c3.7,3.5,3.5,6.3,2.8,8c-0.5,1.2-1.6,2.5-3.9,3.1
				c2,0.5,3.9,0.8,5.6,0.9c4.6,0.3,6.6-0.8,6.8-1.3c0.2-0.6-0.3-2.7-3.6-5.9c-10-9.5-29.3-17.9-43-18.7c-8.2-0.5-12,1.4-12.8,3.2
				c-0.8,1.7,0.4,5.8,6.3,11.4c15.8,15.1,46.5,28.5,68.5,29.8c11.7,0.7,19.9-1.6,21.9-6.1c2-4.5-1.9-12-10.2-20
				c-16.5-15.8-43.3-30.4-69.6-39.1c0,0,0,0,0,0l0,0c-13.5-4.5-26.9-7.4-38.7-8.1C660,664.7,655.8,664.5,651.3,664.5z M709,705.8
				c0.3,0.5,0.8,1.3,1.9,2.3c0.3,0.3,0.6,0.5,0.9,0.8c-0.1-1.1,0.2-2,0.3-2.4c0.1-0.2,0.2-0.5,0.5-0.8c-0.3,0-0.5,0-0.8-0.1
				C710.5,705.6,709.5,705.7,709,705.8z"/>
		</g>
	</g>
	<g>
		<path fill="#FDBA63" d="M909.6,785.1l0,3.4c0,4.9,4,8.8,9,8.8l6.3,0c5,0,9-4,9-8.8l0,0c0-4.9,4-8.8,9-8.8l6.3,0c5,0,9,3.9,9,8.8
			l0,1.6c0,4.9,4,8.8,9,8.8l9.5,0c5,0,9-4,9-8.8l0-1.2c0-4.9,4-8.8,9-8.8l7.6,0c5,0,9,3.9,9,8.8l0,1.2c0,4.9,4,8.8,9,8.8l10.1,0
			c5,0,9-4,9-8.8l0-2.5c0-4.9,4-8.8,9-8.8l10.7,0c5,0,9,3.9,9,8.8l0,2.5c0,4.9,4,8.8,9,8.8l8.9,0c5,0,9-4,9-8.8l0-2.8
			c0-4.9,4-8.8,9-8.8l8.8,0c5,0,9,3.9,9,8.8l0,2.8c0,4.9,4,8.8,9,8.8l9.8,0c5,0,9-4,9-8.8l0-3.1c0-4.9,4-8.8,9-8.8l6.9,0
			c5,0,9,3.9,9,8.8l0,3.1c0,4.9,4,8.8,9,8.8l7.8,0c5,0,9-4,9-8.8l0-4.9c0-9.4-7.8-17-17.4-17l0,0L927,768
			C917.4,768,909.6,775.7,909.6,785.1z"/>
		<path fill="#606161" d="M1190.9,801.8l-7.8,0c-6.9,0-12.5-5.5-12.5-12.3l0-3.1c0-2.9-2.5-5.3-5.5-5.3l-6.9,0c-3,0-5.5,2.4-5.5,5.3
			l0,3.1c0,6.8-5.6,12.3-12.5,12.3l-9.8,0c-6.9,0-12.5-5.5-12.5-12.3l0-2.8c0-2.9-2.5-5.3-5.5-5.3l-8.8,0c-3,0-5.5,2.4-5.5,5.3
			l0,2.8c0,6.8-5.6,12.3-12.5,12.3l-8.9,0c-6.9,0-12.5-5.5-12.5-12.3l0-2.5c0-2.9-2.5-5.3-5.5-5.3l-10.7,0c-3,0-5.5,2.4-5.5,5.3
			l0,2.5c0,6.8-5.6,12.3-12.5,12.3l-10.1,0c-6.9,0-12.5-5.5-12.5-12.3l0-1.2c0-2.9-2.5-5.3-5.5-5.3l-7.6,0c-3,0-5.5,2.4-5.5,5.3
			l0,1.2c0,6.8-5.6,12.3-12.5,12.3l-9.5,0c-6.9,0-12.5-5.5-12.5-12.3l0-1.6c0-2.9-2.5-5.3-5.5-5.3l-6.3,0c-3,0-5.5,2.4-5.5,5.3
			c0,6.8-5.6,12.3-12.5,12.3l-6.3,0c-6.9,0-12.5-5.5-12.5-12.3l0-3.4c0-11.3,9.3-20.6,20.9-20.6l255.5-0.4
			c11.5,0,20.9,9.2,20.9,20.5l0,4.9C1203.4,796.3,1197.8,801.8,1190.9,801.8z M1158.2,774.2l6.9,0c6.9,0,12.5,5.5,12.5,12.3l0,3.1
			c0,2.9,2.5,5.3,5.5,5.3l7.8,0c3,0,5.5-2.4,5.5-5.3l0-4.9c0-7.5-6.3-13.5-13.9-13.5L927,771.5c-7.7,0-13.9,6.1-13.9,13.6l0,3.4
			c0,2.9,2.5,5.3,5.5,5.3l6.3,0c3,0,5.5-2.4,5.5-5.3c0-6.8,5.6-12.3,12.5-12.3l6.3,0c6.9,0,12.5,5.5,12.5,12.3l0,1.6
			c0,2.9,2.5,5.3,5.5,5.3l9.5,0c3,0,5.5-2.4,5.5-5.3l0-1.2c0-6.8,5.6-12.3,12.5-12.3l7.6,0c6.9,0,12.5,5.5,12.5,12.3l0,1.2
			c0,2.9,2.5,5.3,5.5,5.3l10.1,0c3,0,5.5-2.4,5.5-5.3l0-2.5c0-6.8,5.6-12.3,12.5-12.3l10.7,0c6.9,0,12.5,5.5,12.5,12.3l0,2.5
			c0,2.9,2.5,5.3,5.5,5.3l8.9,0c3,0,5.5-2.4,5.5-5.3l0-2.8c0-6.8,5.6-12.3,12.5-12.3l8.8,0c6.9,0,12.5,5.5,12.5,12.3l0,2.8
			c0,2.9,2.5,5.3,5.5,5.3l9.8,0c3,0,5.5-2.4,5.5-5.3l0-3.1C1145.7,779.7,1151.3,774.2,1158.2,774.2z"/>
	</g>
</g>
</svg>
